grf
version=1
nRows=12
nColumns=37
inDegrees=no
endheader
time	ground_force_1_vx	ground_force_1_vy	ground_force_1_vz	ground_force_1_px	ground_force_1_py	ground_force_1_pz	ground_moment_1_mx	ground_moment_1_my	ground_moment_1_mz	ground_force_2_vx	ground_force_2_vy	ground_force_2_vz	ground_force_2_px	ground_force_2_py	ground_force_2_pz	ground_moment_2_mx	ground_moment_2_my	ground_moment_2_mz	ground_force_3_vx	ground_force_3_vy	ground_force_3_vz	ground_force_3_px	ground_force_3_py	ground_force_3_pz	ground_moment_3_mx	ground_moment_3_my	ground_moment_3_mz	ground_force_4_vx	ground_force_4_vy	ground_force_4_vz	ground_force_4_px	ground_force_4_py	ground_force_4_pz	ground_moment_4_mx	ground_moment_4_my	ground_moment_4_mz
      0.00000000	      0.00000000	     -0.00000000	      0.00000000	      0.00000000	      0.00000000	      0.00000000	      0.00000000	      0.00000000	      0.00000000	      3.55115819	     63.95422363	   -400.50604248	   -301.27106691	  -1096.81586680	      0.00000000	      0.00000000	     -0.00000000	  -4703.49787158	     41.93023395	    -32.81668076	   -392.33319092	   -364.49686547	   -714.73149180	      0.00000000	      0.00000000	      0.00000000	   4033.31614983	      0.00000000	     -0.00000000	      0.00000000	      0.00000000	      0.00000000	      0.00000000	      0.00000000	      0.00000000	      0.00000000
      0.01000000	      0.00000000	     -0.00000000	      0.00000000	      0.00000000	      0.00000000	      0.00000000	      0.00000000	      0.00000000	      0.00000000	     -2.32779956	     64.94825745	   -400.53903198	   -291.23766549	  -1098.44898503	      0.00000000	      0.00000000	     -0.00000000	  -5034.76286594	     38.24670801	    -42.60646773	   -404.73675537	   -353.37174116	   -711.49150842	      0.00000000	      0.00000000	      0.00000000	   2168.59391243	      0.00000000	     -0.00000000	      0.00000000	      0.00000000	      0.00000000	      0.00000000	      0.00000000	      0.00000000	      0.00000000
      0.02000000	      0.00000000	     -0.00000000	      0.00000000	      0.00000000	      0.00000000	      0.00000000	      0.00000000	      0.00000000	      0.00000000	     -3.75477934	     64.37156677	   -401.82775879	   -283.42818536	  -1100.59010114	      0.00000000	      0.00000000	      0.00000000	  -5079.95780210	     24.23140795	    -56.50410292	   -430.34133911	   -339.22060566	   -707.28654797	      0.00000000	      0.00000000	      0.00000000	   1000.13436268	      0.00000000	     -0.00000000	      0.00000000	      0.00000000	      0.00000000	      0.00000000	      0.00000000	      0.00000000	      0.00000000
      0.03000000	      0.00000000	     -0.00000000	      0.00000000	      0.00000000	      0.00000000	      0.00000000	      0.00000000	      0.00000000	      0.00000000	     -4.97641993	     66.37107086	   -404.59085083	   -275.49552081	  -1102.97290798	      0.00000000	      0.00000000	     -0.00000000	  -5381.22431591	     15.31117295	    -60.18567028	   -450.93960571	   -323.50417658	   -704.15629554	      0.00000000	      0.00000000	      0.00000000	    877.37381525	      0.00000000	     -0.00000000	      0.00000000	      0.00000000	      0.00000000	      0.00000000	      0.00000000	      0.00000000	      0.00000000
      0.04000000	      0.00000000	     -0.00000000	      0.00000000	      0.00000000	      0.00000000	      0.00000000	      0.00000000	      0.00000000	      0.00000000	     -5.67084599	     67.88612366	   -400.75363159	   -270.44696687	  -1104.26307498	      0.00000000	      0.00000000	     -0.00000000	  -5614.59932943	      5.80832357	    -63.34589437	   -460.53100586	   -309.04872324	   -700.77172745	      0.00000000	      0.00000000	      0.00000000	    688.53114410	      0.00000000	     -0.00000000	      0.00000000	      0.00000000	      0.00000000	      0.00000000	      0.00000000	      0.00000000	      0.00000000
      0.05000000	      0.00000000	     -0.00000000	      0.00000000	      0.00000000	      0.00000000	      0.00000000	      0.00000000	      0.00000000	      0.00000000	     -4.94504929	     68.66885376	   -395.68627930	   -264.62816346	  -1105.79838665	      0.00000000	      0.00000000	      0.00000000	  -5715.02025785	     -1.32649956	    -63.88740146	   -467.58981323	   -295.41360068	   -697.51540046	      0.00000000	      0.00000000	      0.00000000	    463.68201878	      0.00000000	     -0.00000000	      0.00000000	      0.00000000	      0.00000000	      0.00000000	      0.00000000	      0.00000000	      0.00000000
      0.06000000	      0.00000000	     -0.00000000	      0.00000000	      0.00000000	      0.00000000	      0.00000000	      0.00000000	      0.00000000	      0.00000000	     -3.80436516	     68.90445709	   -387.89389038	   -259.83738493	  -1105.63423072	      0.00000000	      0.00000000	     -0.00000000	  -5841.09075255	     -6.34408832	    -62.72750418	   -469.21276855	   -283.54203089	   -695.43010313	      0.00000000	      0.00000000	      0.00000000	    235.90734111	      0.00000000	     -0.00000000	      0.00000000	      0.00000000	      0.00000000	      0.00000000	      0.00000000	      0.00000000	      0.00000000
      0.07000000	      0.00000000	     -0.00000000	      0.00000000	      0.00000000	      0.00000000	      0.00000000	      0.00000000	      0.00000000	      0.00000000	     -3.65763092	     68.98693848	   -385.44549561	   -254.67852347	  -1108.37541169	      0.00000000	      0.00000000	     -0.00000000	  -5849.37230589	    -10.06951615	    -65.04285343	   -467.39071655	   -272.55771269	   -693.33748357	      0.00000000	      0.00000000	      0.00000000	    134.20709033	      0.00000000	     -0.00000000	      0.00000000	      0.00000000	      0.00000000	      0.00000000	      0.00000000	      0.00000000	      0.00000000
      0.08000000	      0.00000000	     -0.00000000	      0.00000000	      0.00000000	      0.00000000	      0.00000000	      0.00000000	      0.00000000	      0.00000000	     -3.60052347	     68.50324249	   -381.00579834	   -250.78568480	  -1111.36574913	      0.00000000	      0.00000000	     -0.00000000	  -5635.34984101	    -15.75897032	    -66.17191177	   -465.44488525	   -262.16836502	   -690.37367344	      0.00000000	      0.00000000	     -0.00000000	    -15.00430201	      0.00000000	     -0.00000000	      0.00000000	      0.00000000	      0.00000000	      0.00000000	      0.00000000	      0.00000000	      0.00000000
      0.09000000	      0.00000000	     -0.00000000	      0.00000000	      0.00000000	      0.00000000	      0.00000000	      0.00000000	      0.00000000	      0.00000000	     -4.38462639	     68.25493622	   -376.06152344	   -247.35432772	  -1110.98157300	      0.00000000	      0.00000000	     -0.00000000	  -5838.43810290	    -19.63032541	    -66.55673809	   -464.29690552	   -253.93651631	   -687.58992615	      0.00000000	      0.00000000	     -0.00000000	   -626.04682447	      0.00000000	     -0.00000000	      0.00000000	      0.00000000	      0.00000000	      0.00000000	      0.00000000	      0.00000000	      0.00000000
      0.10000000	      0.00000000	     -0.00000000	      0.00000000	      0.00000000	      0.00000000	      0.00000000	      0.00000000	      0.00000000	      0.00000000	     -4.15509987	     66.47240448	   -369.85421753	   -242.90829624	  -1110.74091486	      0.00000000	      0.00000000	     -0.00000000	  -5481.66639658	    -22.46860694	    -65.32038683	   -460.73123169	   -247.47566027	   -686.94205248	      0.00000000	      0.00000000	     -0.00000000	   -901.70110738	      0.00000000	     -0.00000000	      0.00000000	      0.00000000	      0.00000000	      0.00000000	      0.00000000	      0.00000000	      0.00000000
      0.11000000	      0.00000000	     -0.00000000	      0.00000000	      0.00000000	      0.00000000	      0.00000000	      0.00000000	      0.00000000	      0.00000000	     -4.63397646	     64.87203979	   -364.53662109	   -240.62405853	  -1112.79000792	      0.00000000	      0.00000000	     -0.00000000	  -5223.45010046	    -23.74789995	    -64.77181036	   -459.98110962	   -241.43685219	   -685.23999838	      0.00000000	      0.00000000	     -0.00000000	   -965.98068461	      0.00000000	     -0.00000000	      0.00000000	      0.00000000	      0.00000000	      0.00000000	      0.00000000	      0.00000000	      0.00000000
